<?xml version="1.0" encoding="UTF-8"?>
<svg id="Camada_2" xmlns="http://www.w3.org/2000/svg" version="1.1" viewBox="0 0 1348.16 283.29">
  <!-- Generator: Adobe Illustrator 30.1.0, SVG Export Plug-In . SVG Version: 2.1.1 Build 136)  -->
  <defs>
    <style>
      .st0 {
        fill: #fff;
      }

      .st0, .st1 {
        stroke-width: 4px;
      }

      .st0, .st1, .st2, .st3 {
        stroke: #ffd88e;
      }

      .st0, .st1, .st3 {
        stroke-linecap: round;
        stroke-linejoin: round;
      }

      .st1, .st3 {
        fill: none;
      }

      .st4, .st2 {
        fill: #ffd88e;
      }

      .st2 {
        stroke-miterlimit: 10;
      }

      .st3 {
        stroke-width: 2px;
      }
    </style>
  </defs>
  <path class="st1" d="M82.86,84.43s10.86,2.17,36.45,26.68c0,0,9.93,12.56,25.28,2.79,0,0,34.59-33.66,56.62-40.95,0,0-8.69,34.13-5.43,39.71,0,0,31.33-17.37,28.39-6.67,0,0-1.86,5.74-7.14,11.63,0,0,10.08-8.84,12.41-4.03,0,0,1.09,1.4-7.45,22.03,0,0-20.94,50.41-69.96,73.22,0,0-40.64,12.72-77.4-41.11,0,0-2.64-5.12,2.48-6.98,0,0-8.38-4.34-8.07-11.01,0,0,18.61-9.46,27.92-27.15,0,0-11.48-17.22-14.12-38.16Z"/>
  <path class="st1" d="M177.99,103.9s.1-13.01,20.29-29.85"/>
  <path class="st1" d="M97.87,149.89s6.83,15.51,26.68,9.31c0,0,2.13,1.18,4.03,2.33"/>
  <line class="st1" x1="126.22" y1="142.41" x2="129.47" y2="145.36"/>
  <path class="st1" d="M145.61,136.05s-3.26,3.88-2.95,7.68"/>
  <path class="st1" d="M152.12,155.71s9.77-60.46,34.59-18.73c0,0-17.06-3.65-34.59,18.73Z"/>
  <path class="st4" d="M138.62,183.16s-11.4.54-11.52-5.76c0,0-.73-5.04,8.62.72,0,0,1.7-11.92,7.46-11.7,0,0,4.02,3.7-4.56,16.74Z"/>
  <path class="st1" d="M133.2,188.52s14.19,9.07,20.48-11.17l6.4,1.51v-8.61s7.21-14.43,8.61-8.73c0,0,10.12,25.48-8.96,35.95,0,0-18.38,5.47-26.53-8.96Z"/>
  <path class="st1" d="M137.5,181.42s4.39,7.39,7.49,8.11"/>
  <path class="st1" d="M119.31,183.75s-22.03,1.32-27.46,27.92"/>
  <path class="st1" d="M120.87,191.27s-17.3,11.87-16.05,30.09"/>
  <path class="st1" d="M151.58,198.49s-3.09-5.52,4.84-20.49"/>
  <path class="st4" d="M168.17,122.67s-3.53,10.35,2.57,17.3c0,0,3.9-2.28,8.29-2.74,0,0,.85-9.78-3.58-13.39l-7.28-1.17Z"/>
  <path class="st1" d="M318.3,118.71s-8.48-14.01-29.59-18.62"/>
  <path class="st1" d="M410.56,118.71s14.73-19.31,48.77-15.14"/>
  <path class="st1" d="M305.24,168.03c-1.25-12.92,4.03-20.11,4.03-20.11l5.56,13.86c.56-10.98,5.56-14.59,5.56-14.59"/>
  <path class="st1" d="M301.35,149s-5.43,7.84-3.96,22.33"/>
  <path class="st1" d="M412.37,149.69s5.84,7.64,3.61,22.51c0,0,7.64-8.75,7.5-17.09,0,0,4.8,9.98,2.78,23.34,0,0,7.97-6.54,10.1-17.37"/>
  <path class="st1" d="M321.08,132.74s7.5-9.03,19.73-7.36"/>
  <path class="st1" d="M377.63,123.57s13.48-3.12,22.79,5.39"/>
  <path class="st1" d="M401.88,128.99c-.49.98-.71,3.57,1.08,5.36s4.7,1.79,6.48,0,1.79-4.7,0-6.48c-1.04-1.04-2.18-1.25-2.75-1.48"/>
  <path class="st4" d="M366.17,128.4s-1.82-6.88-10.7-3.68c0,0-5.14,2.22-.63,5.42,0,0,11.95,4.1,11.32-1.74Z"/>
  <path class="st1" d="M363.08,137.67s-20.7.92-27.09,18.04c0,0-4.45,10.86-6.81,14.89,0,0-8.48,18.9,12.23,26.26,0,0,44.32,9.17,56.27-12.5,0,0,5.28-20.15-3.2-32.65,0,0-10.7-15.98-31.4-14.03Z"/>
  <line class="st1" x1="359.59" y1="128.96" x2="360.3" y2="137.51"/>
  <path class="st1" d="M342.46,146.08s3.04,6.31,5.49,8.49c0,0,2.4,1.93,3.33-2.61,0,0,.73-7.45.26-11.54"/>
  <path class="st1" d="M384.74,145.56s-3.04,6.31-5.49,8.49c0,0-2.4,1.93-3.33-2.61,0,0-.73-7.45-.26-11.54"/>
  <path class="st1" d="M355.46,197.81s7.92-3.02,7.92-9.34c0,0,.06-4.79-4.45-10.91,0,0-4.17-4.59-2.71-11.12,0,0,2.15-6.95,8.96-5.21,0,0,5.91.55,3.13,6.91,0,0-2.99,4.97,1.39,7.89,0,0,5.8,2.92,5.28,11.12,0,0-.74,7.96-3.9,11.17"/>
  <path class="st1" d="M296.46,144.55s-12.71-17.75-10-45.26c0,0,20.74-4.48,45.75,11.78,0,0,24.59-11.88,64.4,1.67,0,0,20.63-20.42,62.73-9.17,0,0-2.92,27.57-23.97,40.98,0,0,12.09,50.72-41.89,65.1,0,0-55.44,11.67-81.7-10.63,0,0-19.38-14.38-15.32-54.47Z"/>
  <path class="st1" d="M570.59,118.16l-41.42-46.07,7.68,61.19s4.19,26.32-20.94,9.21c0,0,15.24,18.13,18.73,32.56,0,0,3.96,36.06,46.54,35.37,0,0,51.65-.23,72.6-40.02,0,0,10.24-20.01,4.89-48.16,0,0-28.39-8.84-19.31-53.05,0,0-16.74,6.28-36.99,43.28l-31.77,5.7Z"/>
  <path class="st1" d="M627.25,108.27s1.4-25.83,12.1-39.09"/>
  <path class="st1" d="M548.83,125.96s-.23-16.44-19.66-53.86"/>
  <path class="st1" d="M643.3,119.21s3.26,8.61,10.47,9.77"/>
  <path class="st1" d="M636.55,132.01s4.42,6.98,13.26,6.05"/>
  <path class="st1" d="M631.67,145.5s3.26,4.19,11.63,1.4"/>
  <path class="st1" d="M533.71,154.81c8.06-1.13,8.38-9.31,8.38-9.31l-2.08,14.68c4.89-2.33,8.14-8.14,8.14-8.14"/>
  <path class="st1" d="M552.3,160.18s-2.32,2.9-6.93,4.87"/>
  <path class="st1" d="M574.17,117.52s-4.66,18.09,3.25,30.97"/>
  <path class="st1" d="M580.16,116.45s-4.76,15.91,2.37,25.37c0,0-3.23-15.01,3.5-26.43"/>
  <path class="st1" d="M589.67,115.39s-3.92,26.27,1.84,41.01"/>
  <path class="st1" d="M594.32,133s-2.18-11.42,1.08-19.29"/>
  <path class="st1" d="M562.37,182.73s-7.1-2.79-10.7,1.75c0,0-3.49,6.28,7.45,10.7,0,0,12.49,4.89,16-1.16,0,0,3.55-6.75-4.01-8.49l-8.73-2.79Z"/>
  <path class="st1" d="M611.58,169.82s-1.4,1.05-7.79,3.02c0,0-6.4,1.21-4.89,9.04,0,0,2.91,8.53,13.26,4.11,0,0,10.01-3.37,9.07-14.54,0,0-2.21-6.98-9.66-1.63Z"/>
  <path class="st1" d="M569,230.2s-2.09-14.64,5.47-19.77"/>
  <path class="st1" d="M555.27,228.57s1.59-13.15,14.29-18.96"/>
  <path class="st1" d="M626.12,217.87s-4.35-10.29-11.72-14.22"/>
  <path class="st1" d="M623.27,199.71s14.4,5,20.03,16.41"/>
  <path class="st4" d="M592.76,209.32s-10.77-3.05-5.5-7.78c0,0,2.25-1.55,7.14,1.78,0,0,.31-5.04,5.27-6.28,0,0,3.8.04,3.49,4.27,0,0-1.32,5.35-4.5,7.29l-5.9.72Z"/>
  <path class="st4" d="M611.01,186.44s3.04-4.68,0-7.62c0,0-3.43-2.09-5.99,0,0,0-4.19,5.2,0,8.14l5.99-.52Z"/>
  <path class="st4" d="M576.07,196.01s.78-4.32-2.79-6.11c0,0-4.27-1.86-6.13.85,0,0-2.56,5.04,2.33,6.9l6.59-1.65Z"/>
  <path class="st1" d="M572.02,176.29s3.2,6.86,9.02,7.15"/>
  <path class="st1" d="M592.93,181.88s-1.69-8.03,5.12-12.62"/>
  <path class="st4" d="M582.93,82.63c-2.34,1.14-4.08,2.51-4.81,5.11s-.81,5.47-.86,8.1c-.03,1.9-.31,4.74,1.54,5.93.89.57,1.96.49,2.87,0,1.32-.7,2.63-1.34,3.97-1.99,4.42-2.15,9.3-5.79,10.94-10.61,1.76-5.16-2.06-10.6-6.36-13.17-2.36-1.41-5.13-1.6-7.81-1.77-2.25-.14-4.42.23-6.62.67-3.52.7-7.51,1.78-9.88,4.68-1.3,1.59-1.8,3.43-1.93,5.45-.15,2.26-.02,4.84,1.13,6.85,2.15,3.75,7.15,4.52,11.04,5.12,2.89.44,5.81.64,8.73.46,2.36-.15,5.01-.35,7.24-1.19s3.62-2.57,4.33-4.89c.6-1.97,1.28-4.04,1.57-6.08.33-2.33-.26-4.12-2.15-5.58-2.16-1.66-4.5-2.14-7.12-1.36s-5.45,1.51-7.6,3.29c-1,.82-1.77,1.85-2.58,2.85s-1.67,1.91-2.29,3.01c-.86,1.52-1.97,3.96-1.16,5.68.94,2.02,4.09,2.26,6.03,2.09,4.45-.39,8.05-4.48,8.02-8.94-.01-2.13-.9-4.38-2.56-5.76s-4.09-1.73-6.22-1.73-4.7.46-5.96,2.44c-.62.98-.77,2.07-.92,3.19-.18,1.31-.83,2.55-.76,3.89.1,2.01,1.63,3.27,3.17,4.3.64.42,1.38.81,1.88,1.4.81.97.91,2.38,1.39,3.51.98,2.3,2.57,3.98,4.95,4.81,2.15.75,4.72,1.52,6.63-.16,1.73-1.53,2.32-4.21,2.5-6.41s-.21-4.6-1.3-6.55c-1.28-2.29-3.5-2.42-5.8-3.05-1.13-.31-2.25-.25-3.4-.35-1.41-.12-2.79-.38-4.2-.3-1.99.11-4.18.43-5.69,1.85-1.41,1.33.72,3.45,2.12,2.12.96-.91,2.79-.96,4.04-.99.96-.02,1.9.12,2.85.23s2.03.04,3,.21c.84.15,1.68.44,2.52.61.9.18,1.5.37,1.96,1.19.81,1.46,1.02,3.19.91,4.83-.08,1.27-.42,3.82-1.71,4.53-.68.38-1.66-.06-2.34-.25-.89-.25-1.89-.47-2.63-1.07-1.48-1.2-1.76-3.02-2.4-4.69-.6-1.56-1.57-2.57-2.93-3.5-.8-.54-2.3-1.2-2.52-2.26-.17-.82.44-1.84.6-2.64.17-.87.1-1.86.53-2.67.76-1.43,3.13-1.28,4.48-1.18,1.52.1,3.11.41,4,1.76,1.74,2.63.47,6.2-2.05,7.83-1.47.95-3.26,1.05-4.92.59-.66-.18-.63,0-.45-.71s.49-1.51.84-2.17c.86-1.63,2.31-3.2,3.56-4.53,1.51-1.6,3.45-2.21,5.49-2.84.93-.29,1.86-.68,2.82-.83,1.05-.17,1.92.17,2.81.71,1.56.95,1.88,1.92,1.53,3.67-.31,1.53-.82,3.03-1.23,4.54-.45,1.68-1.02,2.99-2.76,3.61s-3.63.76-5.41.91c-2.16.18-4.34.15-6.5-.04-3.15-.29-7.11-.68-9.83-2.44s-2.82-5.93-1.97-8.68c.78-2.53,3.38-3.8,5.73-4.55,2.82-.89,6.01-1.61,8.97-1.48,2.03.09,4.39.14,6.22,1.09,1.71.89,3.19,2.29,4.28,3.86s1.9,3.58,1.41,5.6-1.86,3.63-3.27,4.99-2.99,2.47-4.64,3.46c-.87.52-1.78.98-2.71,1.39-.48.21-.95.39-1.41.63-.4.21-1.05.8-1.5.85.11-.01.03.26,0-.16-.02-.32-.07-.65-.08-.98-.03-.94-.03-1.88,0-2.82.08-2.04.16-4.21.63-6.21s1.74-2.82,3.53-3.69.22-3.43-1.51-2.59h0Z"/>
  <line class="st1" x1="797.52" y1="183.93" x2="797.52" y2="177.26"/>
  <path class="st1" d="M819.67,176.49s14.58,2.95,26.99,14.43"/>
  <path class="st1" d="M835.36,148.73s1.03-13.83-18.86-10.69c0,0-10.59,2.56-9.31,12.91,0,0-.1,8.24,11.42,8.71,0,0,16.75.81,16.75-10.94Z"/>
  <path class="st1" d="M781.88,194.32s-7.23,8.89-3.63,18.89c0,0,6.4,4.3,15.36-5.24,0,0,14.78-11.63,24.43-.35,0,0,2.44-8.14-1.05-14.19"/>
  <line class="st3" x1="784.53" y1="198.32" x2="784.53" y2="205.88"/>
  <line class="st3" x1="789.59" y1="201.29" x2="779.47" y2="202.92"/>
  <path class="st4" d="M818.45,207.72s-9.94,9.4-6.06,14.1c0,0,5.11,4.5,8.48-6.95,0,0,7.32,5.31,9.91,2.66,0,0,2.59-6.2-12.33-9.81Z"/>
  <path class="st4" d="M798.59,170.53s-6.73-.39-7.71,2.87c0,0-1.29,4.19,6.64,3.08,0,0,6.81.44,6.73-2.87,0,0-.08-2.85-5.66-3.08Z"/>
  <path class="st4" d="M828.38,139.46s-7.45-2.79-9.62,6.05c0,0-1.83,11.88,7.19,12.34,0,0,7.38-1.41,7.93-7.14,0,0,2.11-8.36-5.5-11.24Z"/>
  <path class="st2" d="M779.47,133.62s-19.08-6.04-30.36,2.57c0,0-12.22,10.87-5,25.46,0,0,6.62,16.29,27.69,12.36,0,0,23.73-3.49,21.06-20.71,0,0,.36-13.55-13.38-19.68Z"/>
  <path class="st0" d="M786.04,154.03s-1-15.24-22.36-11.87c0,0-10.12,1.75-9.25,11.12,0,0,1.25,11.99,13.62,12.49,0,0,17.99.87,17.99-11.74Z"/>
  <path class="st4" d="M779.28,144.75s-7.45-2.79-9.62,6.05c0,0-1.83,11.88,7.19,12.34,0,0,7.38-1.41,7.93-7.14,0,0,2.11-8.36-5.5-11.24Z"/>
  <path class="st1" d="M794.01,197.21"/>
  <path class="st1" d="M787.65,193.26"/>
  <path class="st1" d="M758.9,121.69s-23.15-13.03-24.37-36.06c0,0-7.04,21.17-5.18,31.64,0,0-4.89-4.65-5.58-13.61,0,0-14.66,84.35,48.63,90.63,0,0,22.8,2.79,25.13-10.35,0,0,4.42,14.08,22.1,8.84,0,0,30.44-12.56,34.48-51.34,0,0,4.03-17.06-8.07-46.07,0,0-.78,10.86-2.02,16.6,0,0-5.58-24.35-14.58-39.24,0,0,2.48,36.45-7.6,46.07,0,0-33.43-12.64-62.94,2.91Z"/>
  <path class="st1" d="M1061.24,119.79s11.17-20.09,33.89-25.63"/>
  <path class="st1" d="M996.69,174.14s6.42-1.26,4.87-9.71c0,0-3.18-11.48-15.74-9.77,0,0-15.65,2.11-10.83,14.4,0,0,4.7,10.58,21.71,5.09Z"/>
  <path class="st1" d="M1025,173.75s17.92,4.81,32.81-3.1"/>
  <line class="st1" x1="1015.61" y1="197.64" x2="1015.01" y2="205.96"/>
  <path class="st4" d="M1016.52,191.79s-2.83-6.75-8.51-4.46c0,0-5.99,4.07,8.16,10.63,0,0,8.29-2.26,9.7-6.34,0,0,1.4-4.53-2.79-4.61,0,0-3.88,0-6.55,4.77Z"/>
  <path class="st4" d="M983.73,155.79s4.37,3.8,4.2,10.47c0,0-.36,8.61-7.59,7.87,0,0-9.47-4.86-4.59-14.39,0,0,1.86-4.57,7.98-3.95Z"/>
  <path class="st4" d="M931.91,167.1s-27.92-43.74,4.03-80.2c0,0,.93,3.18,14.12,18.54,0,0-2.09-5.82-7.68-20.94,0,0,21.37-4.54,43.39,23.23,0,0,12.41-1.24,25.44.47,0,0-15.74,57.16-79.3,58.91Z"/>
  <path class="st1" d="M933.57,166.06s-6.4,9.42-.23,16.52c0,0,3.37,4.07,9.42.74,0,0,23.46,36.61,72.25,22.65,0,0,30.09,12.19,62.44-18.51,0,0,3.72,3.5,7.21-1.15,0,0,8.14-13.96,0-29.55,0,0,18.61-23.04,10.47-62.59,0,0-24.97-15.12-57.55,16.29l-26.91-.39"/>
  <path class="st4" d="M1230.93,178.55s-3.78-5.41-8.78-3.66c0,0-4.89,4.54,8.67,8.43,0,0,8.49-2.15,9.66-6.92,0,0-.5-5.06-9.54,2.15Z"/>
  <path class="st4" d="M1221.29,201.45s6.44,10.16,19.18,2.25l-10.04-10.24-9.14,7.99Z"/>
  <path class="st1" d="M1163.69,124.42s-16.05,34.2-3.26,60.03c0,0,13.15,42.81,69.69,40.37,0,0,43.2,1.94,56.81-38.9,0,0,18.58-10.27,13.34-33.15,0,0-18.5-24.63-10.82-61.97,0,0-17.45-.7-31.76,13.61,0,0-37.69-5.24-59.33-.35,0,0-13.96-10.47-35.25-11.52,0,0-6.86,10.35.58,31.88Z"/>
  <path class="st4" d="M1198.19,110.02c.15-1.91.22-3.92.16-5.96,0,0,23.35-4.96,59.33.35,0,0-.1.89.31,2.87.97,4.72-2.65,9.11-7.46,9.06-5.01-.05-11.59,1.15-19.91,5.05,0,0-10.55-7.51-22.74-3.61-5.04,1.61-10.1-2.49-9.69-7.76Z"/>
  <path class="st1" d="M1184.75,116.31s-7.45-14.5-21.64-23.77"/>
  <path class="st1" d="M1272.23,115.15s-.23-13.34,17.22-24.35"/>
  <polyline class="st1" points="1215.3 206.59 1230.43 192.63 1243.81 208.34"/>
  <path class="st1" d="M1187.73,197.17s5.24-7.21,19.43-8.26"/>
  <path class="st1" d="M1197.45,202.98s2.85-5.93,10.3-7.33"/>
  <line class="st1" x1="1230.43" y1="192.63" x2="1230.43" y2="182.74"/>
  <path class="st1" d="M1222.67,155.22s-3.49-17.8-19.43-15.01c0,0-9.73,3.31-5.8,18.24,0,0,4.52,12.01,16.38,8.99,0,0,9.31-3.49,8.84-12.22Z"/>
  <path class="st1" d="M1245.18,155.92s.35-19.78,20.02-13.97c0,0,9.73,3.31,5.8,18.24,0,0-5.23,10.76-17.09,7.74,0,0-9.19-3.28-8.73-12.01Z"/>
  <path class="st4" d="M1204.07,148.99s-1.47,10.52,2.78,12.8c0,0,7.95,3.96,11.79-4.42,0,0,3.45-8.1-4.42-14.31,0,0-8.99-2.1-10.15,5.93Z"/>
  <path class="st4" d="M1248.86,149.55s-1.47,10.52,2.78,12.8c0,0,7.95,3.96,11.79-4.42,0,0,3.43-11-4.42-14.31,0,0-8.99-2.1-10.15,5.93Z"/>
  <path class="st4" d="M1223.33,134.73s-3.49-5.35-8.73-3.37c0,0-1.51,3.49,2.33,5.47,0,0,5.7,3.72,6.4-2.09Z"/>
  <path class="st4" d="M1252.72,122.6s-7.68-1.4-8.11,3.21c0,0,.99,2.86,5.23,2.02,0,0,8.46-.7,2.88-5.24Z"/>
</svg>