<?xml version="1.0" encoding="utf-8"?>
<!-- Generator: Adobe Illustrator 26.0.1, SVG Export Plug-In . SVG Version: 6.00 Build 0)  -->
<svg version="1.1" id="Camada_1" xmlns="http://www.w3.org/2000/svg" xmlns:xlink="http://www.w3.org/1999/xlink" x="0px" y="0px"
	 viewBox="0 0 1121 229" style="enable-background:new 0 0 1121 229;" xml:space="preserve">
<style type="text/css">
	.st0{fill:#EDEDED;}
</style>
<g>
	<path class="st0" d="M79,83.4l-2-1.9l-0.8,2.6c-6.1,19.5,1.2,32.2,8.3,39.4c7.6,7.8,16.6,10.9,17,11l2.1,0.7l0.1-2.2
		C105.2,108.7,80,84.4,79,83.4z M78.6,87.9c2.4,2.5,6.6,7.3,10.7,13.4c0,0.1-0.1,0.2-0.1,0.3l1.6,23.2c-1.4-1.1-2.8-2.3-4.1-3.7
		C78,112.2,75.3,101,78.6,87.9z M92.4,125.9l3.5-13.1c2.6,5.6,4.4,11.7,4.4,17.7C98.5,129.6,95.6,128.2,92.4,125.9z"/>
	<path class="st0" d="M133.1,150.4c-0.2-0.4-0.6-0.7-1-0.6l-1,0.1c-0.2,0-16.1,2.3-22.3-4l-0.7-0.6c-0.3-0.3-0.8-0.4-1.1-0.2
		c-0.4,0.2-0.6,0.7-0.5,1.1l0.2,0.9c0.1,0.5,3.2,11.9,6.5,16.4l-0.3,3.2l-7.5,8.8c-0.3,0.4-0.4,1-0.3,1.5c0.3,0.8,1,1.2,1.6,1.2
		c0.5,0,0.9-0.2,1.3-0.6l6.2-7.2l6.6,12.3c0.3,0.6,0.9,0.9,1.5,0.9c0.6,0,1.2-0.3,1.6-1c0.2-0.4,0.2-1,0-1.4l-7.6-14.1l0.4-4.2
		l16.1-11.3C133.1,151.3,133.3,150.8,133.1,150.4L133.1,150.4z"/>
	<path class="st0" d="M270,124c-2.9,0.6-14.6,1.8-14.6,1.8c-5.2,0.5-11.8,1.2-17.8,1.8c-0.2,0-0.3-0.3-0.1-0.4
		c6.2-4.7,12.2-9.4,18.7-17.5c7.2-9.1,8.6-15.3,8.6-15.3c0,0-5.1,2.3-7.8,2.7c-0.5,0.2-7.3,2.1-19.8-2.4
		c-2.6-0.9-11.4-4.8-15.2-15.8c-3-8.5-2.3-22,1.8-38.5l4.5-15.9c0.2-0.8-0.8-1.4-1.4-0.9c-4.8,4.5-13.7,11.4-17.2,14.1
		c-5,3.8-10.9,8-16.7,11.7c-10.6,6.8-23.1,10.3-36,9.9c-0.7,0-1.4,0-2.1,0c-18.4-0.4-41.3-0.9-55.2-43.1l-1.6-4.7
		c-0.1-0.3-0.4-1.5-0.8-2.7c-0.3-1.1-1.8-1.1-2.1,0c-0.3,1.3-0.6,2.4-0.8,2.8l-1.5,4.7l-0.4,1c-3.3,9.2-10.9,30.7-26.9,46.9
		l-0.1,0.1c0,0-4.1,4.5-9.9,7.5c-7.7,4-19.5,5.3-25.9,0.3c0,0-2.9-2.1-4.2-3.5c-0.2-0.2-0.6-0.1-0.7,0.2c-0.4,2-0.6,5.6-0.6,5.6
		c-0.3,2.3-0.8,18.6,4.7,39.6c3.1,12,9,24.6,17.6,37.6c3.9,5.9,8.7,11.6,14.4,17.2c-10.1,5.9-21.4,13.4-32,22.8
		c-0.4,0.4-0.6,0.9-0.5,1.4c0.2,0.9,0.9,1.4,1.7,1.4c0.4,0,0.8-0.1,1.1-0.4c10.6-9.4,22-17,32.2-22.8c2.3,2.1,4.6,4.2,7.2,6.3
		c-8.5,7.3-19.1,18-29.3,33c-0.3,0.4-0.4,1-0.1,1.5c0.4,0.7,1,1,1.6,1c0.5,0,1.1-0.3,1.4-0.7c10.1-14.9,20.7-25.5,29.1-32.6
		c2.8,2.2,5.8,4.5,9,6.7c-5.6,7.2-11.9,16.2-17.8,26.7c-0.2,0.4-0.3,1,0,1.4c0.4,0.7,1,1,1.6,1c0.6,0,1.2-0.3,1.5-0.8
		c5.9-10.4,12.1-19.2,17.6-26.3c0.1,0.1,0.2,0.1,0.3,0.2c15.6,10.6,35.1,16.6,56.8,17.6c2.3,5.8,4.6,12.3,6.7,19.3
		c0.2,0.7,0.9,1.2,1.6,1.2c0.5,0,0.9-0.2,1.3-0.6c0.3-0.4,0.5-0.9,0.3-1.4c-1.9-6.6-4.1-12.7-6.3-18.3c1,0,1.9,0,2.9,0
		c3.1,0,6.9-0.1,11.1-0.4c3.9,5.9,7.8,12.1,11.4,18.3c0.3,0.5,0.9,0.8,1.5,0.8c0.6,0,1.2-0.3,1.6-1c0.2-0.4,0.2-1-0.1-1.4
		c-3.3-5.7-6.9-11.5-10.6-17c2.5-0.3,5-0.6,7.5-1.1c0.4-0.1,0.9-0.2,1.5-0.3c1.8-0.3,4.5-0.8,8-1.6c3.3,3.9,6.5,8,9.6,12.4
		c0.3,0.5,0.8,0.7,1.4,0.7c0.6,0,1.2-0.3,1.6-1c0.2-0.5,0.2-1.1-0.1-1.5c-2.8-4-5.8-7.9-8.8-11.5c7-1.9,16.2-5.2,26.2-11
		c14.7-8.5,34.6-23.4,48.9-46.7c0,0,0,0,0,0c5-7.4,9.6-17.5,10.6-19.8C270.4,124.1,270.2,123.9,270,124z M179.3,195.6
		c-19.7-21.7-39.9-34.4-40.2-34.6c-0.8-0.5-1.8-0.3-2.3,0.5c-0.5,0.8-0.3,1.8,0.5,2.3c0.2,0.2,19.3,12.1,38.2,32.6
		c-1.2,0.3-2.5,0.5-3.7,0.7c-0.7,0.1-1.2,0.2-1.7,0.3c-3.5,0.7-7.1,1.2-10.6,1.6c-10-14.7-18.9-25.9-19-26.1
		c-0.6-0.7-1.6-0.9-2.4-0.3c-0.7,0.6-0.9,1.6-0.3,2.4c0.1,0.2,8.3,10.6,17.8,24.4c-4.1,0.3-8.2,0.3-12.3,0.1
		c-7.4-17.2-14.4-27.8-14.5-27.9c-0.5-0.8-1.6-1-2.3-0.5c-0.8,0.5-1,1.6-0.5,2.3c0.1,0.1,6.5,9.8,13.5,25.8
		c-17.5-1.4-34.5-7-49.7-16.5c7.1-8.6,12.2-13.3,12.3-13.4c0.7-0.6,0.7-1.7,0.1-2.4c-0.6-0.7-1.7-0.7-2.4-0.1
		c-0.1,0.1-5.4,5.1-12.9,14c-2.7-1.8-5.3-3.7-7.8-5.6c6.8-5.1,11.2-7.4,11.4-7.4c0.8-0.4,1.2-1.4,0.8-2.2c-0.4-0.8-1.4-1.2-2.2-0.8
		c-0.4,0.2-5.3,2.7-12.6,8.2c-2.1-1.7-4.2-3.5-6.2-5.4c14.2-7.5,24.7-11.1,24.9-11.1c0.9-0.3,1.3-1.2,1.1-2.1
		c-0.3-0.9-1.2-1.3-2.1-1.1c-0.2,0.1-11.4,3.9-26.3,11.9c-15.5-15.2-26.9-33.8-31.7-52.8c-3.5-13.6-5-25-5-31.3
		c9.6,4.2,22,0.3,28.1-2.9c6.8-3.5,11.4-8.9,11.9-9.5c11-11.5,16.7-21.5,20.8-30.4c1.4,8.8,3.1,18.8,4,29.3c0,0.4,0.2,2.3,0.4,4.2
		c0.1,0.7,1,0.7,1.2,0c0.3-1.8,0.6-3.6,0.7-3.9c1.6-10.8,1.8-23.6,1.7-33.1c6.4,12.4,14.8,21.2,25.2,26.2c2.4,1.2,4.8,2.1,7.2,2.8
		c0.1,8,1.5,24.8,9.1,44c0.1,0.2,0.1,0.3,0.2,0.5c-6.4,12-19.2,45.2,34.3,46.4c1.5,1.3,3.1,2.6,4.8,3.8l0.1,0.1l0.1,0
		c10.8,8.2,22.5,14.6,36.3,19.7C206.5,185.8,194,192,179.3,195.6z M145,132.2l3.9-1.5c4-1.6,7.1-4.7,8.7-8.7l1.5-3.9l1.5,3.9
		c1.6,4,4.7,7.1,8.7,8.7l3.9,1.5l-3.9,1.5c-4,1.6-7.1,4.7-8.7,8.7l-1.5,3.9l-1.5-3.9c-1.6-4-4.7-7.1-8.7-8.7L145,132.2z M227.9,170
		c-18.3-3.3-34.1-9.5-47.1-18.5c4-10.1,11.3-39.5-34.1-46.9c-6.6-17-8-31.7-8.2-39.1c6.1,1.1,11.8,1.2,16.5,1.2c0.6,0,1.2,0,1.8,0
		c14.7,0.2,28.3-3.5,40.3-11.1c2-1.2,3.9-2.5,5.7-3.8c-5.7,7.6-12.1,18.2-17.6,32.4c-0.2,0.6-1.9,6.1-2.3,7.8c0,0.1,0.1,0.1,0.1,0
		c1-1.5,4.5-7,4.7-7.3c0.6-1,13.4-20.2,26.2-29c-1.2,10.4-0.7,19.3,1.5,25.8c4.8,13.9,16.2,18.9,19.5,20.1c6.8,2.5,13,2.5,17.9,1.7
		c-14.4,16.7-31.6,26.2-31.9,26.3l-7.2,3.9c-0.6,0.5-4.9,2.3-7.2,3.2c-0.3,0.1-0.2,0.5,0.1,0.5c2.5-0.1,7.5-0.2,8.2-0.2l8.1-0.7
		c7.7-0.7,25.7-2.5,34.9-3.5C253.2,141.1,243.5,156.3,227.9,170z"/>
</g>
<g>
	<g>
		<path class="st0" d="M363.4,129.6c-2.6-1.4-3.9-4-3.9-7.6c0-2.3,0.6-4.8,1.7-7.7c1.6,1.8,3.1,3,4.4,3.7c1.4,0.7,2.8,1.1,4.4,1.1
			c4.4,0,7.7-2.5,9.8-7.4c2.2-4.9,3.2-10.4,3.2-16.4c0-11.2-4.2-16.7-12.5-16.7c-2.4,0-4.4,0.1-6.1,0.4l-10.8,50.5h-19l17.9-83.9
			l19.5-2.6L366,72.3h0.8c3.3,0,6.5-1.1,9.4-3.2c2.9-2.2,5.2-4.9,7-8.2s2.6-6.6,2.6-10c0-4-1.4-7.4-4.3-10.2
			c-2.9-2.7-7.2-4.1-13.1-4.1c-5.4,0-10.6,1.2-15.7,3.6c-5.1,2.4-9.3,6-12.5,10.9c-3.2,4.8-4.8,10.7-4.8,17.5c0,3.3,0.3,5.5,0.9,6.8
			c0.6,1.3,0.9,2,0.9,2.2c-4.7,0-8.2-0.9-10.6-2.8c-2.4-1.9-3.6-5-3.6-9.3c0-6,2.2-11.6,6.7-17c4.5-5.4,10.4-9.7,17.8-13
			c7.4-3.3,15.2-4.9,23.3-4.9c6.2,0,11.3,1,15.6,2.9c4.2,1.9,7.4,4.5,9.4,7.7c2.1,3.2,3.1,6.6,3.1,10.4c0,4-1.1,8-3.4,11.7
			c-2.3,3.8-5.5,6.9-9.8,9.2c5.3,1,9.2,3.4,11.7,7.3c2.5,3.9,3.8,8.5,3.8,13.9c0,5-0.9,10.5-2.8,16.4c-1.9,5.9-5,11-9.4,15.2
			c-4.4,4.3-9.9,6.4-16.7,6.4C369.1,131.8,366,131,363.4,129.6z"/>
		<path class="st0" d="M408.9,126.3c-2.6-2.6-3.9-6.6-3.9-11.9c0-2.2,0.4-5.1,1.1-8.6l9-42.3h19l-9.5,44.8c-0.4,1.3-0.5,2.7-0.5,4.2
			c0,1.8,0.4,3,1.3,3.8c0.8,0.8,2.2,1.1,4.2,1.1c2.5,0,4.9-1.1,7.1-3.2c2.2-2.2,3.8-4.9,4.7-8.4h5.5c-3.3,9.5-7.4,15.9-12.5,19.3
			c-5.1,3.4-10.2,5.1-15.2,5.1C414.9,130.3,411.5,129,408.9,126.3z M420.7,53.4c-2-2-3-4.5-3-7.4c0-2.9,1-5.4,3-7.5
			c2-2.1,4.5-3.1,7.4-3.1c2.9,0,5.4,1,7.5,3.1c2.1,2.1,3.1,4.5,3.1,7.5c0,2.9-1,5.4-3.1,7.4c-2.1,2-4.5,3-7.5,3
			C425.2,56.5,422.7,55.5,420.7,53.4z"/>
		<path class="st0" d="M444.6,125.2c-3.3-3.4-5-8.8-5-16.1c0-6.5,1.3-13.3,3.9-20.5c2.6-7.2,6.5-13.2,11.6-18.2
			c5.1-5,11.3-7.4,18.4-7.4c3.6,0,6.3,0.6,8,1.8c1.8,1.2,2.6,2.9,2.6,4.9v0.9l1.5-7h19l-9.5,44.8c-0.4,1.3-0.5,2.7-0.5,4.2
			c0,3.8,1.8,5.7,5.4,5.7c2.5,0,4.6-1.1,6.4-3.4c1.8-2.3,3.2-5.3,4.3-9h5.5c-3.3,9.5-7.3,15.9-12.1,19.3c-4.8,3.4-9.6,5.1-14.4,5.1
			c-3.7,0-6.7-1-8.9-3.1c-2.2-2.1-3.6-5.1-4-9c-2.5,3.6-5.4,6.5-8.5,8.8c-3.1,2.2-6.8,3.4-11.1,3.4
			C452.1,130.3,447.9,128.6,444.6,125.2z M472.2,114.4c2.2-2.1,3.6-4.9,4.4-8.5l6.3-29.8c0-1.1-0.4-2.3-1.3-3.4
			c-0.9-1.1-2.2-1.7-4.1-1.7c-3.5,0-6.7,2-9.5,6.1c-2.8,4.1-5,9-6.6,14.8c-1.6,5.8-2.4,10.8-2.4,15.2c0,4.4,0.6,7.2,1.9,8.4
			c1.3,1.2,2.8,1.8,4.7,1.8C467.9,117.5,470,116.5,472.2,114.4z"/>
		<path class="st0" d="M546.4,126c-2.5-2.9-3.8-6.4-3.8-10.6c0-1.8,0.2-3.9,0.7-6.3c0.4-2.3,0.9-4.6,1.4-6.8c0.5-2.2,0.8-3.6,1-4.2
			c0.7-3.1,1.4-6.1,2-9.1c0.6-3,0.9-5.4,0.9-7.3c0-4.5-1.6-6.7-4.7-6.7c-2.3,0-4.3,1.1-6.1,3.4c-1.8,2.2-3.2,5.2-4.2,8.8l-9,42.3
			h-19l14-65.9h19l-1.4,6.9c4.4-4.9,9.5-7.4,15.4-7.4c4.5,0,8,1.2,10.7,3.7c2.6,2.5,4,6.2,4,11.2c0,2.6-0.3,5.4-0.9,8.5
			c-0.6,3.1-1.5,6.9-2.6,11.4c-0.7,2.7-1.3,5.4-1.9,8c-0.6,2.6-0.9,4.6-0.9,6.1c0,1.8,0.4,3.1,1.2,4.1c0.8,1,2.2,1.4,4.1,1.4
			c2.6,0,4.7-0.9,6.3-2.8c1.6-1.9,3.2-4.8,4.7-8.8h5.5c-3.3,9.7-7,16.2-11.3,19.5c-4.3,3.3-8.7,4.9-13.3,4.9
			C552.9,130.3,548.9,128.9,546.4,126z"/>
		<path class="st0" d="M580.9,125.2c-3.6-3.4-5.4-8.7-5.4-15.9c0-6.1,1.2-12.7,3.6-20c2.4-7.3,6.3-13.6,11.6-18.9
			c5.3-5.3,12.1-8,20.2-8c5.3,0,9,1.1,11.3,3.4c2.2,2.3,3.4,5.2,3.4,8.7c0,3.1-0.7,5.5-2,7.1c-1.3,1.7-3,2.5-5,2.5
			c-1.5,0-3-0.5-4.6-1.6c1.1-2.9,1.6-5.5,1.6-7.8c0-1.7-0.3-3-0.9-3.9c-0.6-1-1.5-1.4-2.8-1.4c-2.6,0-5.3,2.2-7.9,6.5
			c-2.6,4.3-4.8,9.5-6.5,15.7c-1.7,6.2-2.5,11.7-2.5,16.6c0,4.3,0.7,7.2,2.2,8.8c1.5,1.5,3.9,2.3,7.2,2.3c4.7,0,8.8-1.1,12.2-3.3
			c3.4-2.2,7.1-5.5,11.1-10h4.5c-9.8,16.3-21.8,24.4-36.3,24.4C589.6,130.3,584.5,128.6,580.9,125.2z"/>
		<path class="st0" d="M631.1,125.2c-3.3-3.4-5-8.8-5-16.1c0-6.5,1.3-13.3,3.9-20.5c2.6-7.2,6.5-13.2,11.6-18.2
			c5.1-5,11.3-7.4,18.4-7.4c3.6,0,6.3,0.6,8,1.8c1.8,1.2,2.6,2.9,2.6,4.9v0.9l1.5-7h19l-9.5,44.8c-0.4,1.3-0.5,2.7-0.5,4.2
			c0,1.8,0.4,3,1.3,3.8c0.8,0.8,2.2,1.1,4.2,1.1c1.2,0,2.2-0.2,2.9-0.5c-1.9,4.9-3.8,8.4-5.5,10.3c-1.8,2-4.3,3-7.7,3
			c-3.6,0-6.5-1.1-8.8-3.2c-2.2-2.2-3.6-5.2-4.2-9c-5.4,8.2-11.9,12.3-19.6,12.3C638.6,130.3,634.5,128.6,631.1,125.2z M658.8,114.4
			c2.2-2.1,3.6-4.9,4.4-8.5l6.3-29.8c0-1.1-0.4-2.3-1.3-3.4c-0.9-1.1-2.2-1.7-4.1-1.7c-3.5,0-6.7,2-9.5,6.1c-2.8,4.1-5,9-6.6,14.8
			c-1.6,5.8-2.4,10.8-2.4,15.2c0,4.4,0.6,7.2,1.9,8.4c1.3,1.2,2.8,1.8,4.7,1.8C654.4,117.5,656.6,116.5,658.8,114.4z"/>
		<path class="st0" d="M757.4,42.2h-1.6c-7.8,0-13.9,2-18.3,5.9c-4.4,3.9-6.5,10.8-6.5,20.8c0,3.3,0.3,5.5,0.9,6.8
			c0.6,1.3,0.9,2,0.9,2.2c-4.7,0-8.3-1-10.6-3c-2.3-2-3.5-5.3-3.5-9.8c0-6.2,1.5-11.9,4.6-17.1c3.1-5.1,8-9.3,14.7-12.5
			c6.7-3.2,15.3-4.8,25.6-4.8c5.8,0,12,0.5,18.7,1.6c5.6,1,10.6,1.4,15,1.4c5.6,0,10.7-0.9,15.3-2.8c-0.2,5.7-1.6,9.9-4.4,12.7
			s-6.8,4.1-12.1,4.1c-2.8,0-5.6-0.2-8.4-0.7c-2.8-0.4-6.8-1.2-12-2.2l-18.2,84.6h-19L757.4,42.2z"/>
		<path class="st0" d="M784.7,125.2c-3.3-3.4-5-8.8-5-16.1c0-6.5,1.3-13.3,3.9-20.5c2.6-7.2,6.5-13.2,11.6-18.2
			c5.1-5,11.3-7.4,18.4-7.4c3.6,0,6.3,0.6,8,1.8c1.8,1.2,2.6,2.9,2.6,4.9v0.9l1.5-7h19l-9.5,44.8c-0.4,1.3-0.5,2.7-0.5,4.2
			c0,3.8,1.8,5.7,5.4,5.7c2.5,0,4.6-1.1,6.4-3.4c1.8-2.3,3.2-5.3,4.3-9h5.5c-3.3,9.5-7.3,15.9-12.1,19.3c-4.8,3.4-9.6,5.1-14.4,5.1
			c-3.7,0-6.7-1-8.9-3.1c-2.2-2.1-3.6-5.1-4-9c-2.5,3.6-5.4,6.5-8.5,8.8c-3.1,2.2-6.8,3.4-11.1,3.4
			C792.3,130.3,788.1,128.6,784.7,125.2z M812.4,114.4c2.2-2.1,3.6-4.9,4.4-8.5l6.3-29.8c0-1.1-0.4-2.3-1.3-3.4
			c-0.9-1.1-2.2-1.7-4.1-1.7c-3.5,0-6.7,2-9.5,6.1c-2.8,4.1-5,9-6.6,14.8c-1.6,5.8-2.4,10.8-2.4,15.2c0,4.4,0.6,7.2,1.9,8.4
			c1.3,1.2,2.8,1.8,4.7,1.8C808,117.5,810.2,116.5,812.4,114.4z"/>
		<path class="st0" d="M853.9,126.4c-2.9-2.6-4.3-6.5-4.3-11.7c0-2.1,0.2-4.2,0.7-6.3l9.5-44.8h19l-9.5,44.8
			c-0.4,2.2-0.7,3.8-0.7,4.7c0,2.9,1.5,4.4,4.5,4.4c4,0,7.8-2.6,11.3-7.7c3.5-5.1,6.3-11.2,8.4-18.2c2.1-7,3.2-13.1,3.2-18.2
			c-0.2,0.4-0.7,0.8-1.7,1c-1,0.2-1.8,0.3-2.5,0.3c-1.5,0-2.7-0.7-3.5-2.1c-0.8-1.4-1.3-2.9-1.3-4.6c0-2.1,0.7-3.8,2-5.1
			c1.4-1.3,3.4-2,6.1-2c2.9,0,5,1.1,6.3,3.2c1.3,2.2,2,4.9,2,8.2c0,7.9-1.4,16.4-4.1,25.4c-2.7,9-6.9,16.7-12.5,23
			c-5.6,6.3-12.6,9.5-21,9.5C860.7,130.3,856.8,129,853.9,126.4z"/>
		<path class="st0" d="M908.7,125.2c-3.3-3.4-5-8.8-5-16.1c0-6.5,1.3-13.3,3.9-20.5c2.6-7.2,6.5-13.2,11.6-18.2
			c5.1-5,11.3-7.4,18.4-7.4c3.6,0,6.3,0.6,8,1.8c1.8,1.2,2.6,2.9,2.6,4.9v0.9l1.5-7h19l-9.5,44.8c-0.4,1.3-0.5,2.7-0.5,4.2
			c0,3.8,1.8,5.7,5.4,5.7c2.5,0,4.6-1.1,6.4-3.4c1.8-2.3,3.2-5.3,4.3-9h5.5c-3.3,9.5-7.3,15.9-12.1,19.3c-4.8,3.4-9.6,5.1-14.4,5.1
			c-3.7,0-6.7-1-8.9-3.1c-2.2-2.1-3.6-5.1-4-9c-2.5,3.6-5.4,6.5-8.5,8.8c-3.1,2.2-6.8,3.4-11.1,3.4
			C916.2,130.3,912,128.6,908.7,125.2z M936.3,114.4c2.2-2.1,3.6-4.9,4.4-8.5l6.3-29.8c0-1.1-0.4-2.3-1.3-3.4
			c-0.9-1.1-2.2-1.7-4.1-1.7c-3.5,0-6.7,2-9.5,6.1c-2.8,4.1-5,9-6.6,14.8c-1.6,5.8-2.4,10.8-2.4,15.2c0,4.4,0.6,7.2,1.9,8.4
			c1.3,1.2,2.8,1.8,4.7,1.8C932,117.5,934.1,116.5,936.3,114.4z"/>
		<path class="st0" d="M983.7,63.6h19l-1.7,8.2c3-2.6,5.7-4.7,8.1-6.1c2.4-1.4,5-2.1,7.8-2.1s5,1,6.7,2.9c1.6,1.9,2.4,4.3,2.4,7
			c0,2.5-0.8,4.8-2.5,6.7c-1.7,1.9-4,2.9-7,2.9c-1.9,0-3.2-0.5-3.9-1.4c-0.7-0.9-1.2-2.3-1.5-4c-0.3-1.1-0.5-2-0.8-2.5
			c-0.3-0.5-0.8-0.8-1.5-0.8c-1.8,0-3.4,0.4-4.7,1.1c-1.3,0.8-2.9,2-4.9,3.9l-10.5,50.1h-19L983.7,63.6z"/>
		<path class="st0" d="M1028,125.2c-3.6-3.4-5.4-8.7-5.4-15.9c0-6.1,1.2-12.7,3.6-20c2.4-7.3,6.2-13.6,11.6-18.9
			c5.4-5.3,12.2-8,20.4-8c9.7,0,14.5,4.2,14.5,12.7c0,4.9-1.4,9.5-4.2,13.6c-2.8,4.1-6.6,7.4-11.2,9.9c-4.7,2.5-9.6,3.9-14.9,4.3
			c-0.2,2.6-0.3,4.4-0.3,5.3c0,4.3,0.7,7.2,2.2,8.8c1.5,1.5,3.9,2.3,7.2,2.3c4.7,0,8.8-1.1,12.2-3.3c3.4-2.2,7.1-5.5,11.1-10h4.5
			c-9.8,16.3-21.8,24.4-36.3,24.4C1036.7,130.3,1031.6,128.6,1028,125.2z M1052.7,93.1c2.9-2.1,5.3-4.8,7.1-8
			c1.8-3.3,2.7-6.7,2.7-10.3c0-3.6-1.1-5.4-3.3-5.4c-3.2,0-6.3,2.8-9.3,8.3c-3,5.5-5.2,11.8-6.5,18.9
			C1046.7,96.4,1049.8,95.2,1052.7,93.1z"/>
		<path class="st0" d="M1079.3,127.9c-2.9-1.6-5.1-3.7-6.5-6.3c-1.4-2.6-2.1-5.3-2.1-8.1c0-2.9,0.7-5.4,2-7.6c1.4-2.1,3-3.7,4.9-4.7
			c3.4-6.1,6.4-12.4,9-18.7c2.5-6.3,5-13.1,7.3-20.4l19.5-2.6c0.4,11.3,1.2,23.4,2.2,36.5c0.4,5.3,0.7,9.1,0.7,11.5
			c0,5.4-1.4,9.8-4.1,13.2c-2.7,3.4-6.1,5.9-10.1,7.4c-4,1.5-8.1,2.2-12.2,2.2C1085.8,130.3,1082.2,129.5,1079.3,127.9z M1093.9,117
			c2.2-1.9,3.3-5.1,3.3-9.4c0-2.6-0.3-6.3-0.8-11.1c-0.9-10-1.4-16.7-1.7-20.2c-2.1,6.9-5.7,15.2-10.7,24.9c2,1.1,3,2.6,3,4.6
			c0,1.7-0.6,3.2-1.6,4.5c-1.1,1.3-2.5,2-4.2,2c-1.8,0-3-0.6-3.6-1.7c0,3.2,0.6,5.5,1.9,7c1.3,1.5,3.3,2.2,6.1,2.2
			C1089,119.9,1091.7,118.9,1093.9,117z"/>
	</g>
	<g>
		<path class="st0" d="M336.5,194v-30.3h5V194H336.5z"/>
		<path class="st0" d="M350.4,194v-30.3h5v26.1h12.9v4.2H350.4z"/>
		<path class="st0" d="M398.1,163.7v19.6c0,2.1-0.4,4-1.3,5.7s-2.2,3-4,4c-1.8,1-4.1,1.5-6.8,1.5c-3.9,0-6.8-1-8.9-3.1
			c-2-2-3-4.8-3-8.1v-19.5h5v19.1c0,2.5,0.6,4.4,1.8,5.6s3,1.8,5.3,1.8c1.6,0,2.9-0.3,4-0.9s1.8-1.4,2.3-2.5c0.5-1.1,0.7-2.5,0.7-4
			v-19.1H398.1z"/>
		<path class="st0" d="M424.2,185.8c0,1.8-0.4,3.3-1.3,4.6s-2.1,2.3-3.8,3c-1.6,0.7-3.6,1-5.9,1c-1.1,0-2.2-0.1-3.2-0.2
			c-1-0.1-2-0.3-2.9-0.5c-0.9-0.2-1.7-0.5-2.5-0.9v-4.7c1.2,0.5,2.6,1,4.1,1.5c1.5,0.4,3.1,0.7,4.6,0.7c1.3,0,2.4-0.2,3.2-0.5
			s1.5-0.8,1.9-1.5s0.6-1.4,0.6-2.2c0-0.9-0.2-1.7-0.7-2.3s-1.2-1.2-2.2-1.7c-1-0.5-2.2-1.1-3.7-1.7c-1-0.4-1.9-0.8-2.8-1.3
			c-0.9-0.5-1.7-1.1-2.4-1.8c-0.7-0.7-1.3-1.5-1.7-2.5c-0.4-1-0.6-2.1-0.6-3.3c0-1.7,0.4-3.2,1.2-4.4c0.8-1.2,2-2.2,3.5-2.8
			s3.3-1,5.3-1c1.6,0,3.1,0.2,4.5,0.5c1.4,0.3,2.8,0.8,4.1,1.4l-1.6,4c-1.3-0.5-2.5-0.9-3.6-1.2s-2.4-0.5-3.6-0.5
			c-1.1,0-1.9,0.2-2.7,0.5c-0.7,0.3-1.3,0.8-1.7,1.3c-0.4,0.6-0.6,1.3-0.6,2c0,0.9,0.2,1.6,0.7,2.2c0.4,0.6,1.1,1.1,2,1.6
			c0.9,0.5,2.1,1.1,3.6,1.7c1.7,0.7,3.1,1.4,4.3,2.2c1.2,0.8,2.1,1.7,2.7,2.7S424.2,184.2,424.2,185.8z"/>
		<path class="st0" d="M441.4,194h-5v-26.1h-8.9v-4.2h22.7v4.2h-8.9V194z"/>
		<path class="st0" d="M464.3,163.7c2.6,0,4.8,0.3,6.5,1s3,1.6,3.8,2.9s1.3,2.9,1.3,4.9c0,1.5-0.3,2.8-0.8,3.8
			c-0.6,1.1-1.3,1.9-2.2,2.6s-1.9,1.2-2.9,1.6l8.6,13.4h-5.6l-7.3-12.1h-4.9V194h-5v-30.3H464.3z M463.9,167.9h-3.2v9.9h3.4
			c2.3,0,4-0.4,5-1.3s1.6-2.1,1.6-3.8c0-1.7-0.6-3-1.7-3.7S466.2,167.9,463.9,167.9z"/>
		<path class="st0" d="M502.5,194l-3-8.4h-11.6l-3,8.4h-5.2l11.3-30.4h5.5l11.3,30.4H502.5z M498.3,181.3l-2.9-8.3
			c-0.1-0.4-0.3-0.9-0.5-1.5c-0.2-0.6-0.4-1.3-0.6-2c-0.2-0.7-0.4-1.3-0.5-1.7c-0.1,0.6-0.3,1.2-0.5,1.9c-0.2,0.7-0.4,1.4-0.6,2
			c-0.2,0.6-0.3,1.1-0.4,1.4l-2.9,8.3H498.3z"/>
		<path class="st0" d="M525.6,167.5c-1.5,0-2.7,0.3-3.9,0.8c-1.1,0.5-2.1,1.3-2.9,2.3s-1.4,2.2-1.8,3.6c-0.4,1.4-0.6,3-0.6,4.7
			c0,2.3,0.3,4.4,1,6s1.7,3,3,3.9c1.4,0.9,3.1,1.4,5.1,1.4c1.3,0,2.6-0.1,3.8-0.4s2.5-0.6,3.8-1v4.2c-1.2,0.5-2.5,0.8-3.7,1.1
			c-1.3,0.2-2.7,0.3-4.4,0.3c-3.1,0-5.7-0.6-7.7-1.9s-3.6-3.1-4.6-5.4s-1.5-5.1-1.5-8.2c0-2.3,0.3-4.4,0.9-6.3
			c0.6-1.9,1.6-3.5,2.8-4.9s2.7-2.5,4.5-3.2c1.8-0.8,3.8-1.1,6.2-1.1c1.5,0,3,0.2,4.5,0.5c1.5,0.3,2.8,0.8,4.1,1.4l-1.7,4.1
			c-1.1-0.5-2.2-0.9-3.3-1.3C528,167.7,526.8,167.5,525.6,167.5z M528.9,199.6c0,1.5-0.5,2.6-1.5,3.4s-2.6,1.2-4.8,1.2
			c-0.5,0-1,0-1.5-0.1c-0.4-0.1-0.8-0.1-1.1-0.2v-2.8c0.3,0.1,0.7,0.2,1.2,0.2c0.5,0.1,1,0.1,1.4,0.1c0.7,0,1.3-0.1,1.7-0.4
			s0.6-0.7,0.6-1.3c0-0.6-0.3-1.1-0.9-1.5c-0.6-0.4-1.5-0.6-2.7-0.8l1.7-3.4h3.2l-0.8,1.8c0.6,0.2,1.2,0.4,1.7,0.7s1,0.7,1.3,1.2
			C528.8,198.3,528.9,198.9,528.9,199.6z"/>
		<path class="st0" d="M559.2,194l-3-8.4h-11.6l-3,8.4h-5.2l11.3-30.4h5.5l11.3,30.4H559.2z M542.2,160.9c0.1-1,0.3-1.8,0.5-2.6
			c0.3-0.7,0.6-1.3,1.1-1.8c0.4-0.5,1-0.9,1.6-1.1s1.2-0.4,1.9-0.4c0.6,0,1.2,0.1,1.8,0.4s1.1,0.5,1.6,0.8c0.5,0.3,1.1,0.6,1.6,0.8
			c0.5,0.2,1,0.4,1.5,0.4c0.5,0,1-0.2,1.4-0.6s0.7-1,0.9-1.8h2.6c-0.2,1.9-0.7,3.4-1.6,4.4c-0.9,1-2.1,1.5-3.5,1.5
			c-0.6,0-1.2-0.1-1.7-0.4s-1.1-0.5-1.6-0.8c-0.5-0.3-1-0.6-1.6-0.8s-1-0.4-1.5-0.4c-0.6,0-1,0.2-1.4,0.6s-0.7,1-0.8,1.8H542.2z
			 M555,181.3l-2.9-8.3c-0.1-0.4-0.3-0.9-0.5-1.5c-0.2-0.6-0.4-1.3-0.6-2c-0.2-0.7-0.4-1.3-0.5-1.7c-0.1,0.6-0.3,1.2-0.5,1.9
			c-0.2,0.7-0.4,1.4-0.6,2c-0.2,0.6-0.3,1.1-0.4,1.4l-2.9,8.3H555z"/>
		<path class="st0" d="M596.3,178.8c0,2.3-0.3,4.5-0.9,6.4s-1.5,3.6-2.6,4.9c-1.2,1.4-2.6,2.4-4.4,3.2c-1.8,0.7-3.8,1.1-6.2,1.1
			c-2.4,0-4.5-0.4-6.3-1.1s-3.3-1.8-4.4-3.2c-1.2-1.4-2-3-2.6-5c-0.6-1.9-0.9-4.1-0.9-6.4c0-3.1,0.5-5.9,1.5-8.2s2.6-4.1,4.7-5.4
			s4.8-1.9,8-1.9c3.2,0,5.8,0.6,7.9,1.9s3.7,3.1,4.7,5.4S596.3,175.7,596.3,178.8z M573.1,178.8c0,2.3,0.3,4.4,1,6.1
			c0.6,1.7,1.6,3,2.9,3.9c1.3,0.9,3,1.4,5.1,1.4c2.1,0,3.8-0.5,5.1-1.4c1.3-0.9,2.3-2.2,2.9-3.9c0.6-1.7,0.9-3.7,0.9-6.1
			c0-3.5-0.7-6.3-2.1-8.3s-3.7-3-6.8-3c-2.1,0-3.8,0.5-5.1,1.4c-1.3,0.9-2.3,2.2-3,3.9S573.1,176.5,573.1,178.8z"/>
		<path class="st0" d="M624.6,163.2c1.6,0,2.9,0.3,4.1,0.8c1.2,0.5,2.1,1.3,2.8,2.2c0.7,1,1,2.2,1,3.5c0,1.9-0.6,3.5-1.7,4.7
			c-1.2,1.3-2.6,2.4-4.4,3.4l7.2,6.9c0.7-0.9,1.2-1.9,1.7-3.1c0.4-1.1,0.8-2.3,1.2-3.5h5c-0.4,1.7-1,3.4-1.8,5.1s-1.7,3.2-2.9,4.6
			l6.2,6h-6.3l-3.1-3c-0.8,0.7-1.8,1.3-2.7,1.8c-1,0.5-2,0.9-3.2,1.2s-2.4,0.4-3.8,0.4c-2.1,0-3.9-0.3-5.5-1
			c-1.5-0.7-2.7-1.6-3.5-2.9c-0.8-1.3-1.2-2.8-1.2-4.5c0-1.5,0.2-2.7,0.7-3.7c0.5-1,1.2-2,2.1-2.8c0.9-0.8,2-1.6,3.3-2.3
			c-0.7-0.8-1.3-1.6-1.8-2.3c-0.5-0.7-0.9-1.5-1.2-2.3c-0.3-0.8-0.4-1.6-0.4-2.6c0-1.4,0.3-2.6,1-3.6c0.7-1,1.7-1.8,2.9-2.3
			S622.9,163.2,624.6,163.2z M622.5,180.2c-0.8,0.5-1.5,1-2.1,1.5c-0.6,0.5-1,1.1-1.3,1.7c-0.3,0.6-0.5,1.3-0.5,2.2
			c0,1.4,0.5,2.6,1.5,3.4c1,0.8,2.3,1.2,3.9,1.2c1.4,0,2.6-0.2,3.7-0.6c1.1-0.4,2-1,2.8-1.6L622.5,180.2z M624.5,167.1
			c-1,0-1.8,0.3-2.5,0.8s-1.1,1.3-1.1,2.4c0,0.9,0.2,1.7,0.7,2.5c0.5,0.8,1.1,1.6,1.9,2.5c1.5-0.8,2.5-1.6,3.2-2.4
			c0.7-0.8,1.1-1.7,1.1-2.7c0-1-0.3-1.7-1-2.2C626.2,167.4,625.4,167.1,624.5,167.1z"/>
		<path class="st0" d="M684.3,178.6c0,3.4-0.6,6.3-1.9,8.6c-1.3,2.3-3.1,4-5.5,5.2c-2.4,1.2-5.3,1.7-8.8,1.7h-8.4v-30.3h9.3
			c3.1,0,5.8,0.6,8.1,1.7s4,2.8,5.3,5C683.6,172.6,684.3,175.3,684.3,178.6z M679.1,178.7c0-2.5-0.4-4.5-1.2-6.1s-1.9-2.8-3.4-3.6
			c-1.5-0.8-3.4-1.2-5.6-1.2h-4.3v22h3.5c3.7,0,6.4-0.9,8.2-2.8S679.1,182.4,679.1,178.7z"/>
		<path class="st0" d="M708.8,194h-17.2v-30.3h17.2v4.2h-12.2v8.2H708v4.2h-11.4v9.5h12.2V194z"/>
		<path class="st0" d="M733.7,185.8c0,1.8-0.4,3.3-1.3,4.6c-0.9,1.3-2.1,2.3-3.8,3c-1.6,0.7-3.6,1-5.9,1c-1.1,0-2.2-0.1-3.2-0.2
			c-1-0.1-2-0.3-2.9-0.5c-0.9-0.2-1.7-0.5-2.5-0.9v-4.7c1.2,0.5,2.6,1,4.1,1.5c1.5,0.4,3.1,0.7,4.6,0.7c1.3,0,2.4-0.2,3.2-0.5
			s1.5-0.8,1.9-1.5c0.4-0.6,0.6-1.4,0.6-2.2c0-0.9-0.2-1.7-0.7-2.3s-1.2-1.2-2.2-1.7c-1-0.5-2.2-1.1-3.7-1.7c-1-0.4-1.9-0.8-2.8-1.3
			c-0.9-0.5-1.7-1.1-2.4-1.8c-0.7-0.7-1.3-1.5-1.7-2.5c-0.4-1-0.6-2.1-0.6-3.3c0-1.7,0.4-3.2,1.2-4.4c0.8-1.2,2-2.2,3.5-2.8
			s3.3-1,5.3-1c1.6,0,3.1,0.2,4.5,0.5c1.4,0.3,2.8,0.8,4.1,1.4l-1.6,4c-1.3-0.5-2.5-0.9-3.6-1.2c-1.2-0.3-2.4-0.5-3.6-0.5
			c-1.1,0-1.9,0.2-2.7,0.5s-1.3,0.8-1.7,1.3c-0.4,0.6-0.6,1.3-0.6,2c0,0.9,0.2,1.6,0.7,2.2c0.4,0.6,1.1,1.1,2,1.6
			c0.9,0.5,2.1,1.1,3.6,1.7c1.7,0.7,3.1,1.4,4.3,2.2c1.2,0.8,2.1,1.7,2.7,2.7C733.4,182.9,733.7,184.2,733.7,185.8z"/>
		<path class="st0" d="M740.4,194v-30.3h5V194H740.4z"/>
		<path class="st0" d="M766.4,177.6h11.3v15.2c-1.6,0.5-3.2,0.9-4.9,1.2c-1.7,0.3-3.6,0.4-5.7,0.4c-3.1,0-5.7-0.6-7.8-1.8
			c-2.1-1.2-3.7-3-4.9-5.3c-1.1-2.3-1.7-5.1-1.7-8.4c0-3.2,0.6-5.9,1.8-8.2c1.2-2.3,3-4.1,5.4-5.4c2.4-1.3,5.2-1.9,8.5-1.9
			c1.6,0,3.2,0.2,4.8,0.5c1.5,0.3,3,0.8,4.2,1.3l-1.8,4.1c-1-0.5-2.2-0.9-3.4-1.2c-1.3-0.3-2.6-0.5-4-0.5c-2.2,0-4,0.5-5.6,1.4
			c-1.6,0.9-2.8,2.3-3.6,4c-0.8,1.7-1.3,3.7-1.3,6c0,2.3,0.3,4.2,1,5.9c0.7,1.7,1.7,3,3.2,4c1.4,0.9,3.3,1.4,5.6,1.4
			c1.1,0,2.1-0.1,2.9-0.2c0.8-0.1,1.6-0.3,2.2-0.4v-7.8h-6.4V177.6z"/>
		<path class="st0" d="M811.2,194h-6.1l-14.9-24.2H790c0.1,0.8,0.1,1.7,0.2,2.6c0,0.9,0.1,1.9,0.1,2.8c0,1,0.1,1.9,0.1,2.9V194h-4.5
			v-30.3h6.1l14.8,24h0.1c0-0.7-0.1-1.5-0.1-2.4c0-0.9-0.1-1.9-0.1-2.8c0-1-0.1-1.9-0.1-2.8v-15.9h4.5V194z"/>
	</g>
</g>
</svg>
