<?xml version="1.0" encoding="utf-8"?>
<!-- Generator: Adobe Illustrator 26.0.1, SVG Export Plug-In . SVG Version: 6.00 Build 0)  -->
<svg version="1.1" id="Camada_1" xmlns="http://www.w3.org/2000/svg" xmlns:xlink="http://www.w3.org/1999/xlink" x="0px" y="0px"
	 viewBox="0 0 200 200" style="enable-background:new 0 0 200 200;" xml:space="preserve">
<style type="text/css">
	.st0{fill:#E8216F;}
</style>
<path class="st0" d="M109.07,120.73l1.46,3.71l1.46-3.71c1.5-3.8,4.51-6.8,8.31-8.3l3.71-1.46l-3.71-1.46
	c-3.8-1.5-6.81-4.5-8.31-8.3l-1.46-3.71l-1.46,3.71c-1.5,3.8-4.51,6.8-8.31,8.3l-3.71,1.46l3.71,1.46
	C104.57,113.93,107.57,116.93,109.07,120.73z"/>
<path class="st0" d="M196.76,105.26c-2.31,0.45-11.55,1.43-11.55,1.43c-4.11,0.42-9.32,0.94-14.02,1.44
	c-0.17,0.02-0.25-0.2-0.12-0.31c4.92-3.69,9.62-7.43,14.79-13.83c5.66-7.21,6.81-12.04,6.81-12.04c0.01-0.02-3.99,1.78-6.13,2.16
	c-0.36,0.13-5.74,1.68-15.6-1.87c-2.06-0.74-9-3.83-11.99-12.44c-2.34-6.74-1.82-17.38,1.44-30.35l3.57-12.51
	c0.19-0.66-0.61-1.14-1.11-0.67c-3.77,3.57-10.77,8.99-13.6,11.15c-3.98,2.98-8.58,6.28-13.13,9.2c-8.4,5.38-15.37,8.11-25.55,7.86
	c-0.54-0.01-1.09-0.03-1.64-0.04c-4.24-0.09-8.77-0.19-13.35-1.11l0.24,5.82c0.06,1.98,0.24,4.64,0.64,7.81
	c0.02,0.18,0.04,0.36,0.07,0.54c0.04,0.31,0.09,0.63,0.13,0.95c0.03,0.24,0.07,0.49,0.11,0.73c0.05,0.3,0.09,0.6,0.14,0.91
	c0.05,0.32,0.11,0.65,0.17,0.98c0.04,0.25,0.08,0.5,0.13,0.76c0.1,0.57,0.21,1.14,0.33,1.73c0.05,0.23,0.1,0.47,0.15,0.71
	c0.08,0.41,0.17,0.82,0.26,1.24c0.06,0.25,0.11,0.51,0.17,0.76c0.1,0.43,0.2,0.87,0.31,1.31c0.06,0.24,0.11,0.47,0.17,0.71
	c0.15,0.6,0.31,1.2,0.47,1.81c0.02,0.08,0.04,0.17,0.07,0.25c0.19,0.69,0.39,1.4,0.6,2.11c0.06,0.21,0.13,0.43,0.2,0.65
	c0.16,0.51,0.32,1.03,0.49,1.55c0.08,0.25,0.17,0.51,0.25,0.77c0.17,0.52,0.35,1.04,0.53,1.56c0.08,0.24,0.16,0.47,0.25,0.71
	c0.27,0.75,0.55,1.51,0.85,2.28c35.82,5.84,28.94,25.71,25.82,33.67c10.29,7.09,22.74,11.98,37.18,14.56l6.96,1.43
	c6.43-5.91,11.02-9.79,16.4-18.51c0,0,0,0,0,0c3.96-5.87,7.55-13.83,8.33-15.6C197.05,105.39,196.92,105.23,196.76,105.26z"/>
<path class="st0" d="M161.94,150.1l-6.97-1.84c-10.92-4.02-20.11-9-28.65-15.5l-0.05-0.02l-0.08-0.07
	c-1.28-0.98-2.54-1.99-3.76-3.02c-42.18-0.97-32.13-27.08-27.06-36.58c-0.05-0.13-0.11-0.27-0.16-0.4
	c-6.02-15.16-7.07-28.4-7.18-34.71v-5.9c-9.52-3.29-18.83-11.36-25.53-31.6l-1.24-3.75c-0.08-0.25-0.33-1.16-0.59-2.16
	c-0.23-0.86-1.44-0.86-1.67,0c-0.27,1.01-0.51,1.93-0.59,2.18l-1.19,3.74l-0.29,0.83c-2.58,7.26-8.62,24.25-21.22,36.96l-0.06,0.07
	c-0.03,0.03-3.22,3.54-7.77,5.91C21.8,67.41,12.5,68.38,7.46,64.5c0,0-2.25-1.64-3.3-2.73c-0.18-0.19-0.5-0.09-0.55,0.17
	c-0.29,1.61-0.48,4.43-0.48,4.43c-0.25,1.81-0.6,14.66,3.67,31.21c2.43,9.43,7.11,19.4,13.91,29.63c3.07,4.62,6.84,9.12,11.36,13.54
	c-8,4.62-16.9,10.59-25.22,17.99c-0.32,0.28-0.39,0.7-0.38,1.12c0.09,1.96,2.43,2.97,2.68,2.73c-0.23,0.21,0.56-0.28,0.81-0.5
	c8.38-7.45,17.36-13.42,25.38-18c1.78,1.65,2.37,1.85,4.37,3.49c-6.74,5.74-15.05,14.2-23.1,26.06c-0.23,0.34-0.28,0.8-0.09,1.17
	c0.28,0.56,2.06,2.26,2.53,2.26c0.42,0,0.84-0.2,1.1-0.58c7.98-11.75,16.32-20.12,22.99-25.75c2.23,1.76,3.31,2.07,5.8,3.83
	c-4.4,5.67-9.35,12.76-14.06,21.04c-0.19,0.34-0.22,0.76-0.04,1.1c0.3,0.54,2.06,2.23,2.53,2.23c0.46,0,0.91-0.24,1.15-0.67
	l14.1-21.05c12.28,8.34,26.37,12.1,43.5,12.89c1.83,4.6,3.64,9.7,5.25,15.22c0.17,0.58,0.7,0.95,1.27,0.95
	c0.36,0,2.44-0.41,2.76-0.75c0.28-0.3,0.36-0.73,0.24-1.12c-1.52-5.21-3.21-10.06-4.94-14.47c0.76,0.02-0.19,0.29,0.57,0.29
	c2.41,0,5.47-0.04,8.79-0.28c3.07,4.63,6.17,9.54,8.97,14.4c0.24,0.43,0.69,0.66,1.15,0.66c0.47,0,2.65-0.51,2.94-1.06
	c0.18-0.34,0.15-0.76-0.04-1.09c-2.6-4.52-5.46-9.1-8.32-13.44c1.96-0.21,2.25-0.23,4.24-0.63c0.31-0.06,0.7-0.13,1.2-0.21
	c1.41-0.24,3.58-0.62,6.31-1.27c2.61,3.07,5.16,6.34,7.59,9.8c0.26,0.37,0.67,0.56,1.08,0.56c0.48,0,2.68-0.52,2.95-1.09
	c0.18-0.38,0.13-0.83-0.11-1.17c-2.23-3.19-4.58-6.22-6.97-9.09c5.56-1.53,11.09-3.85,18.98-8.38
	C153.71,155.85,157.75,153.25,161.94,150.1z M50.43,104.92c-5.61-5.7-11.3-15.73-6.52-31.09l0.63-2.04l1.54,1.47
	c0.28,0.27,2.65,2.56,5.64,6.19l0.04,5.91c-0.03,0.08-0.05,0.16-0.05,0.25l1.29,18.32l0.19,3.51
	C52.28,106.68,51.34,105.84,50.43,104.92z M65.55,112.45l-0.11,1.73l-1.64-0.56c-0.19-0.07-3.11-1.09-6.76-3.4l2.71-13.43l0.78-4.24
	C63.69,98.59,66,105.51,65.55,112.45z M88.52,127.02l-11.86,8.9l-0.32,3.35l5.28,11.6c0.18,0.34,0.21,0.76,0.02,1.09
	c-0.3,0.53-1.09,0.91-1.55,0.91c-0.47,0-0.92-0.25-1.16-0.69l-5.24-9.67l-4.27,5.4c-0.26,0.31-0.63,0.46-1.01,0.46
	c-0.52,0-1.38-0.64-1.62-1.26c-0.14-0.36-0.04-0.89,0.21-1.18l5-6.93l0.24-2.51c-2.56-3.61-4.1-12.58-4.2-12.96l-0.19-0.7
	c-0.09-0.33,0.06-0.68,0.36-0.85c0.3-0.17,0.69-0.07,0.91,0.14l0.52,0.51c4.83,4.97,17.43,3.16,17.56,3.14l0.79-0.12
	c0.35-0.05,0.68,0.14,0.81,0.47h0C88.91,126.45,88.8,126.82,88.52,127.02z"/>
</svg>
